<?xml version="1.0" encoding="UTF-8"?>
<svg width="375px" height="812px" viewBox="0 0 375 812" version="1.1" xmlns="http://www.w3.org/2000/svg" xmlns:xlink="http://www.w3.org/1999/xlink">
    <!-- Generator: Sketch 53.1 (72631) - https://sketchapp.com -->
    <title>launch</title>
    <desc>Created with Sketch.</desc>
    <defs>
        <linearGradient x1="50%" y1="0%" x2="50%" y2="100%" id="linearGradient-1">
            <stop stop-color="#FAD961" offset="0%"></stop>
            <stop stop-color="#F76B1C" offset="100%"></stop>
        </linearGradient>
        <linearGradient x1="0.25781251%" y1="49.7500002%" x2="101.257813%" y2="49.7500002%" id="linearGradient-2">
            <stop stop-color="#3023AE" offset="0%"></stop>
            <stop stop-color="#53A0FD" offset="47.5247532%"></stop>
            <stop stop-color="#B4EC51" offset="100%"></stop>
        </linearGradient>
        <linearGradient x1="-16.8772724%" y1="31.9035166%" x2="101.999998%" y2="77.3441885%" id="linearGradient-3">
            <stop stop-color="#3023AE" offset="0%"></stop>
            <stop stop-color="#C86DD7" offset="100%"></stop>
        </linearGradient>
        <path d="M105.092872,202.348814 C111.295371,203.581213 117.662337,203.79436 122.269443,203.451615 M129.819096,202.779327 L129.819096,202.779327 C133.814094,202.304988 137.723204,201.549367 141.526215,200.532745 C149.890501,198.296802 157.741555,194.798323 164.864341,190.253097 C172.068025,185.656247 178.526805,179.988737 184.018235,173.473791 C188.810033,167.788876 192.865269,161.458703 196.036146,154.631585 C199.181985,147.858375 201.457375,140.596037 202.717994,132.989399 C203.469178,128.45672 203.860038,123.801789 203.860038,119.055247 C203.860038,112.086499 203.017526,105.31522 201.42914,98.8383858 C199.722472,91.8792396 197.154709,85.2600251 193.845726,79.1010382 C189.701673,71.3877403 184.395079,64.3962713 178.161408,58.3629201 C173.311237,53.6686095 167.899834,49.554322 162.038108,46.1313545 C155.438977,42.2777779 148.269096,39.3003979 140.686715,37.3580203 C134.02134,35.6505517 127.037206,34.7428795 119.841814,34.7428795 C110.799452,34.7428795 102.090722,36.176334 93.9289741,38.8291482 C85.9382603,41.426371 78.471843,45.1923842 71.7299367,49.9262724 C64.7839984,54.8034234 58.6070867,60.707918 53.4181493,67.420042 C46.6926666,76.1197564 41.6269071,86.1762283 38.6976035,97.1110558 C36.8232271,104.107935 35.8235904,111.464443 35.8235904,119.055247 C35.8235904,131.105747 38.342873,142.565778 42.881744,152.933895 C48.4014197,165.542459 56.907814,176.536218 67.5022542,185.013356 C76.3939792,192.128066 86.7565125,197.470081 98.0585713,200.506257" id="path-4"></path>
    </defs>
    <g id="launch" stroke="none" stroke-width="1" fill="none" fill-rule="evenodd">
        <path d="M-35.946412,757.100756 C-4.90669795,653.700252 38.7483341,602 95.0186841,602 C151.289034,602 298.546991,679.781328 536.792556,835.343985 L366.771055,1014.397 L-97.0640003,1000.33213 L-35.946412,757.100756 Z" id="Path-8" fill-opacity="0.52" fill="url(#linearGradient-1)"></path>
        <path d="M-27.2870407,-160.946564 C8.11799389,-258.982188 57.9125221,-308 122.096544,-308 C186.280566,-308 354.248385,-234.254315 626,-86.7629439 L432.06725,83 L-97,69.6648779 L-27.2870407,-160.946564 Z" id="Path-8-Copy" fill-opacity="0.52" fill="url(#linearGradient-2)" transform="translate(264.500000, -112.500000) scale(1, -1) translate(-264.500000, 112.500000) "></path>
        <path d="M212.485935,626.44291 C315.057263,594.670034 407.600582,635.399626 490.115893,748.631687 L417.065588,964.922406 L-34,999.773307 L-34,761.319768 C27.7526284,703.174739 109.914607,658.215786 212.485935,626.44291 Z" id="Path-6" fill-opacity="0.47" fill="url(#linearGradient-3)"></path>
        <g id="Done" transform="translate(0.000000, 106.000000)">
            <path d="M82.2358491,180 C75.3244743,180 69.7216981,172.926099 69.7216981,164.2 C69.7216981,155.473901 75.3244743,148.4 82.2358491,148.4 L12.5141509,148.4 C5.60277622,148.4 8.46399293e-16,141.326099 0,132.6 C-8.46399293e-16,123.873901 5.60277622,116.8 12.5141509,116.8 L84.0235849,116.8 C90.9349596,116.8 96.5377358,109.726099 96.5377358,101 C96.5377358,92.273901 90.9349596,85.2 84.0235849,85.2 L39.3301887,85.2 C32.418814,85.2 26.8160377,78.126099 26.8160377,69.4 C26.8160377,60.673901 32.418814,53.6 39.3301887,53.6 L110.839623,53.6 C103.928248,53.6 98.3254717,46.526099 98.3254717,37.8 C98.3254717,29.073901 103.928248,22 110.839623,22 L212.740566,22 C219.651941,22 225.254717,29.073901 225.254717,37.8 C225.254717,46.526099 219.651941,53.6 212.740566,53.6 L327.15566,53.6 C334.067035,53.6 339.669811,60.673901 339.669811,69.4 C339.669811,78.126099 334.067035,85.2 327.15566,85.2 L366.485849,85.2 C373.397224,85.2 379,92.273901 379,101 C379,109.726099 373.397224,116.8 366.485849,116.8 L332.518868,116.8 C325.607493,116.8 320.004717,123.873901 320.004717,132.6 C320.004717,141.326099 325.607493,148.4 332.518868,148.4 L343.245283,148.4 C350.156658,148.4 355.759434,155.473901 355.759434,164.2 C355.759434,172.926099 350.156658,180 343.245283,180 L82.2358491,180 Z M373.5,180 C366.596441,180 361,172.836556 361,164 C361,155.163444 366.596441,148 373.5,148 C380.403559,148 386,155.163444 386,164 C386,172.836556 380.403559,180 373.5,180 Z" id="BG" fill="#F3F7FF"></path>
            <g id="ISO-Metric-World-Map" transform="translate(73.000000, 0.000000)">
                <mask id="mask-5" fill="white">
                    <use xlink:href="#path-4"></use>
                </mask>
                <use id="Mask" stroke="#75A4FE" stroke-width="2.5" fill="#FFFFFF" stroke-linecap="round" transform="translate(119.841814, 119.170755) rotate(-44.000000) translate(-119.841814, -119.170755) " xlink:href="#path-4"></use>
                <g opacity="0.849888393" mask="url(#mask-5)">
                    <g transform="translate(-95.000000, -24.000000)" opacity="0.528669085">
                        <g id="AEA" transform="translate(108.424109, 104.898183)">
                            <path d="M1.73484194e-13,91.1028916 L5.40448589,84.126544 L13.7190796,77.1501965 C13.7190796,76.6030319 13.7190796,75.6454941 13.7190796,74.2775828 C13.7190796,72.2257158 15.3819983,71.8153425 16.6291874,71.4049691 C29.1010779,68.5323554 30.3482669,66.4804884 34.9212935,63.6078747 C34.3669872,58.1362296 36.7227888,54.7164514 41.9886981,53.3485401 C40.8800856,51.1598821 40.0486262,49.7919708 39.49432,49.2448063 C38.9400138,48.6976417 34.0898341,46.9193571 24.9437811,43.9099522 C24.6666279,42.2684587 24.2508982,40.0798006 23.696592,37.3439781 C22.8651326,28.3157636 23.696592,25.0327765 24.1123217,23.391283 C24.3894748,22.2969539 27.2995826,20.5186693 32.8426451,18.056429 C34.5055638,17.2356822 36.029906,16.2781443 37.4156716,15.1838153 C38.8014372,14.0894862 43.6516168,12.8583661 51.9662105,11.4904548 L72.7526947,13.5423217 L95.2020977,23.391283 L95.2020977,32.0091241 L98.5279352,35.7024845 L102.685232,35.7024845 L118.06723,46.7825659 L121.393068,44.730699 L123.471716,43.9099522 L121.393068,41.8580853 L121.393068,35.7024845 L118.06723,35.7024845 L113.494204,36.5232313 L113.494204,28.3157636 L113.909933,26.6742701 L113.494204,25.0327765 L110.584096,24.2120297 L110.584096,30.3676305 L106.426799,32.0091241 L102.685232,32.0091241 L100.606584,29.1365104 L100.606584,23.8016564 L102.685232,25.0327765 L106.426799,24.6224031 C106.426799,23.8016564 106.288223,22.9809096 106.011069,22.1601628 C105.733916,21.339416 105.456763,21.0658338 105.17961,21.339416 C99.9137008,19.6979225 96.7264399,18.6035935 95.6178274,18.056429 C94.5092149,17.5092644 93.2620258,17.7828467 91.8762602,18.8771757 L85.640315,18.8771757 L74.4156135,13.9526951 C74.4156135,13.6791128 74.4156135,12.4479927 74.4156135,10.2593346 C74.4156135,7.24992981 77.3257213,5.7452274 83.1459368,5.7452274 L88.1346931,7.79709432 C90.6290712,8.61784109 92.569143,9.02821448 93.9549086,9.02821448 C95.3406742,9.02821448 96.3107102,8.20746771 96.8650164,6.56597417 L96.8650164,4.51410724 L109.336907,5.7452274 L111.831285,6.56597417 L122.640257,6.56597417 L124.718905,8.20746771 L124.718905,2.46224031 L126.797554,0 L133.864958,0.820746771 L151.741335,0.820746771 C155.621478,2.73582257 158.254433,3.96694273 159.640199,4.51410724 C161.718847,5.33485401 166.291874,10.669708 167.539063,11.4904548 C168.370522,12.0376193 169.479135,13.4055306 170.8649,15.5941886 L170.8649,18.4668023 L173.359278,18.4668023 L176.685116,15.5941886 L178.348035,19.6979225 C178.348035,19.6979225 178.486611,19.6979225 178.763764,19.6979225 C181.258142,19.6979225 188.048394,22.8441185 199.134519,29.1365104 L199.965978,26.6742701 C200.520284,26.6742701 201.351744,26.6742701 202.460356,26.6742701 C203.568969,26.6742701 204.123275,26.8110612 204.123275,27.0846434 L204.539005,33.6506176 L206.617653,33.6506176 L210.35922,30.3676305 L217.426625,32.0091241 L220.336733,36.5232313 L242.786136,46.7825659 L263.988349,62.3767546 L271.471484,64.4286215 L279.370348,70.5842223 L289.34786,78.3813166 C291.287932,80.2963924 293.228004,82.0746771 295.168076,83.7161706 C297.108148,85.3576642 300.433985,86.8623666 305.145588,88.2302779 L312.628723,95.2066254 L321.774776,104.23484 L321.774776,109.569694 C320.38901,109.569694 319.418974,109.569694 318.864668,109.569694 C318.310362,109.569694 317.756055,109.296112 317.201749,108.748947 L312.212993,103.414093 L310.965804,105.055587 L310.965804,107.517827 L303.06694,107.517827 L298.909643,105.055587 C297.246724,105.055587 296.276688,105.055587 295.999535,105.055587 C295.722382,105.055587 295.583805,105.329169 295.583805,105.876333 C295.583805,109.159321 295.445229,111.074396 295.168076,111.621561 C294.890923,112.168725 292.673698,112.989472 288.516401,114.083801 L288.516401,101.7726 C289.625013,100.131106 290.317896,99.036777 290.595049,98.4896125 C290.040743,98.4896125 289.34786,97.8056569 288.516401,96.4377456 L283.943374,97.2584924 C280.063231,95.8905811 277.014546,94.796252 274.797321,93.9755053 C272.580096,93.1547585 271.055754,93.0179674 270.224295,93.5651319 L273.550132,96.0273722 C273.550132,100.404688 273.550132,103.550884 273.550132,105.46596 C273.550132,107.381036 272.995826,108.475365 271.887213,108.748947 L268.977106,106.286707 C268.422799,106.560289 266.898457,107.244245 264.404079,108.338574 C261.909701,109.432903 259.831053,109.843276 258.168134,109.569694 C257.613828,109.569694 256.505215,109.159321 254.842296,108.338574 C253.179378,107.517827 252.209342,107.9282 251.932189,109.569694 L248.190621,109.569694 L246.943432,113.263054 L246.111973,114.904548 L244.449054,114.904548 L242.786136,118.597908 L242.786136,116.135668 L241.954676,114.904548 L241.954676,109.569694 L242.370406,108.748947 L241.123217,106.69708 L241.123217,104.23484 L238.628839,104.23484 L239.044568,104.645213 L239.044568,109.569694 L234.887272,109.569694 L232.392893,111.621561 L232.808623,116.135668 L230.729975,117.777162 C227.958444,118.871491 224.909759,119.829029 221.583922,120.649775 C218.258084,121.470522 214.100787,121.060149 209.112031,119.418655 C204.954734,117.503579 202.044627,116.40925 200.381708,116.135668 C198.718789,115.862086 197.610177,116.956415 197.05587,119.418655 L192.067114,125.574256 L182.921061,126.805376 L182.089602,125.163883 L182.089602,120.239402 C180.703836,119.96582 179.456647,119.692237 178.348035,119.418655 C177.239422,119.145073 176.13081,119.829029 175.022197,121.470522 L170.033441,127.626123 L170.033441,122.291269 C170.033441,121.744104 170.449171,120.512984 171.28063,118.597908 C172.112089,116.682833 174.606467,114.220592 178.763764,111.211187 L177.932305,110.800814 C177.932305,109.432903 177.932305,107.654618 177.932305,105.46596 C180.426683,104.645213 180.426683,104.23484 180.842413,103.00372 C180.288106,101.909391 178.625188,101.362226 175.853656,101.362226 L155.898632,101.362226 L150.078416,105.055587 L145.505389,105.055587 C145.505389,101.7726 145.505389,98.6264036 145.505389,95.6169988 C146.336849,93.4283408 148.69265,90.4189359 152.572794,86.5887843 L152.572794,82.4850505 L150.078416,78.79169 L142.595282,74.2775828 L142.179552,72.2257158 L139.685174,70.1738489 L137.606525,67.7116086 L137.190796,64.8389949 L135.943607,63.6078747 C135.112147,63.7446659 134.419265,63.881457 133.864958,64.0182481 C133.310652,64.1550393 132.894922,64.7022038 132.617769,65.6597417 L133.864958,67.7116086 L138.853715,70.5842223 L138.853715,75.9190763 C138.576561,76.7398231 138.160832,77.697361 137.606525,78.79169 C128.460472,81.2539303 118.06723,79.6124368 106.426799,73.8672094 L106.426799,68.9427288 L110.584096,64.4286215 L110.584096,61.1456344 L113.494204,56.6315272 L113.909933,54.1692869 L113.078474,52.9381667 L113.078474,54.5796603 L102.685232,68.5323554 C102.685232,68.8059376 102.685232,69.7634755 102.685232,71.4049691 C106.565376,74.1407916 108.782601,76.3294497 109.336907,77.9709432 L109.336907,84.126544 L105.59534,85.7680376 L89.3818821,86.5887843 L74.8313432,87.4095311 L68.5953979,89.461398 C66.9324792,91.9236383 65.2695604,93.701923 63.6066417,94.796252 C61.9437229,95.8905811 58.8950386,96.9849101 54.4605886,98.0792391 L42.8201575,98.0792391 L38.2471309,102.593346 L10.8089718,102.593346 L0.831459368,98.0792391 L1.70530257e-13,96.4377456 L1.73484194e-13,91.1028916 Z M157.97728,48.0136861 C158.069187,47.4239895 156.683421,47.1504073 153.819983,47.1929393 L150.494146,52.9381667 L151.325605,54.5796603 L157.145821,51.7070466 L157.97728,48.6292462 C157.885373,48.8085694 157.885373,48.6033827 157.97728,48.0136861 Z M133.033499,35.9076712 L139.685174,42.2684587 L142.595282,41.8580853 L143.426741,39.8062184 L142.179552,38.1647248 L137.606525,38.1647248 L136.515235,37.3439781 L135.112147,34.4713644 L133.449229,34.4713644 L133.033499,35.9076712 Z" id="Depth" stroke="#9BA6E5" fill="#9AA5E5"></path>
                            <path d="M0.831459368,92.7443851 L3.41060513e-13,91.1028916 L5.40448589,84.126544 L14.5505389,76.3294497 C12.6104671,73.5936271 14.2733858,71.6785513 19.5392952,70.5842223 C24.8052045,69.4898933 29.9325373,67.1644441 34.9212935,63.6078747 C34.9212935,60.8720522 35.3370232,58.6833941 36.1684825,57.0419006 C37.2557164,54.8954489 40.4429773,53.5275376 45.7302653,52.9381667 L41.9886981,49.2448063 C41.9886981,47.6033127 41.4343919,46.0986103 40.3257794,44.730699 C39.2171669,43.3627877 34.0898341,41.3109208 24.9437811,38.5750982 C23.2808623,34.1977821 23.0037092,29.1365104 24.1123217,23.391283 C30.3482669,18.4668023 33.2583747,18.4668023 36.1684825,16.004562 C38.1085544,14.3630685 43.3744637,12.8583661 51.9662105,11.4904548 L72.7526947,13.5423217 L95.2020977,23.391283 L95.2020977,32.0091241 L98.5279352,35.7024845 L102.685232,35.7024845 L118.06723,46.7825659 L121.393068,44.730699 L124.718905,43.9099522 L126.797554,41.8580853 L124.718905,40.2165918 L121.393068,36.5232313 L121.393068,33.6506176 L121.393068,30.3676305 L118.06723,30.3676305 L113.494204,31.1883773 L113.494204,28.3157636 L114.325663,23.391283 L113.494204,19.6979225 L110.584096,18.4668023 L110.584096,25.0327765 L106.426799,26.6742701 L102.685232,26.6742701 L101.022313,24.2120297 L102.685232,25.0327765 L107.673988,25.0327765 C106.842529,23.9384475 106.426799,22.1601628 106.426799,19.6979225 C106.426799,17.2356822 106.011069,16.004562 105.17961,16.004562 C101.853773,15.1838153 99.3593945,14.3630685 97.6964758,13.5423217 C96.0335571,12.7215749 94.0934852,12.7215749 91.8762602,13.5423217 L76.0785322,13.5423217 C74.4156135,12.1744104 73.9998838,10.5329169 74.8313432,8.61784109 C75.6628025,6.7027653 78.4343338,5.7452274 83.1459368,5.7452274 C88.6889993,7.93388545 92.1534133,9.02821448 93.539179,9.02821448 C94.9249446,9.02821448 96.0335571,8.20746771 96.8650164,6.56597417 L96.8650164,4.51410724 L109.336907,5.7452274 L111.831285,6.56597417 L122.640257,6.56597417 L125.550365,8.61784109 L129.707661,9.84896125 L135.112147,13.5423217 L138.853715,12.3112016 L141.348093,11.4904548 L144.2582,13.5423217 L149.246957,12.3112016 L143.426741,9.84896125 L146.336849,8.61784109 L150.078416,7.38672094 L142.595282,6.56597417 L138.853715,8.61784109 L132.20204,8.61784109 L132.20204,5.7452274 L126.797554,6.56597417 L124.718905,5.7452274 L124.718905,2.46224031 L126.797554,0 L133.864958,0.820746771 C138.576561,0.820746771 144.535354,0.820746771 151.741335,0.820746771 C163.797496,6.15560078 162.392287,6.97313587 169.201981,13.5423217 C170.759554,15.044883 171.036707,16.6863766 170.033441,18.4668023 L173.359278,18.4668023 L176.685116,16.004562 C176.685116,16.2781443 177.239422,17.5092644 178.348035,19.6979225 C181.951025,20.245087 188.879853,23.391283 199.134519,29.1365104 L199.965978,26.6742701 C201.628897,26.6742701 202.876086,26.6742701 203.707545,26.6742701 C204.539005,26.6742701 204.539005,28.9997192 203.707545,33.6506176 L206.617653,33.6506176 L210.35922,30.3676305 L217.426625,32.0091241 L220.336733,36.5232313 L242.786136,46.7825659 L263.988349,62.3767546 L271.471484,64.4286215 L289.34786,78.3813166 C291.565085,80.5699747 293.228004,82.2114682 294.336616,83.3057972 C295.445229,84.4001263 299.04822,86.0416198 305.145588,88.2302779 L313.460182,96.0273722 L321.359046,104.23484 C320.80474,104.23484 320.111857,104.23484 319.280397,104.23484 C318.448938,104.23484 317.617479,103.824467 316.786019,103.00372 L312.212993,98.0792391 L310.965804,99.7207327 L310.965804,102.182973 L303.06694,102.182973 L298.909643,99.7207327 C297.80103,99.7207327 296.830995,99.7207327 295.999535,99.7207327 C294.752346,99.7207327 295.999535,105.46596 295.168076,106.286707 C294.61377,106.833871 292.396545,107.654618 288.516401,108.748947 C288.516401,104.918796 288.516401,102.730137 288.516401,102.182973 C288.516401,101.362226 290.17932,98.8999859 291.426509,98.0792391 C292.257968,97.5320746 293.78231,96.848119 295.999535,96.0273722 C295.445229,94.6594609 294.336616,93.9755053 292.673698,93.9755053 C291.010779,93.9755053 289.625013,93.0179674 288.516401,91.1028916 C286.576329,91.6500561 285.190563,91.9236383 284.359104,91.9236383 C283.111915,91.9236383 276.46024,89.0510246 273.550132,88.2302779 C270.640024,87.4095311 268.145646,88.2302779 266.898457,89.0510246 C266.066998,89.5981892 266.066998,90.2821448 266.898457,91.1028916 L273.550132,96.0273722 L273.550132,100.131106 C272.995826,102.866929 272.302943,103.824467 271.471484,103.00372 C270.640024,102.182973 269.808565,101.499017 268.977106,100.951853 C264.542656,103.140511 261.355395,104.23484 259.415323,104.23484 C256.505215,104.23484 256.089485,103.00372 254.010837,103.00372 C252.625071,103.00372 251.932189,103.414093 251.932189,104.23484 L248.190621,104.23484 L246.943432,107.9282 L246.111973,109.569694 L244.449054,109.569694 L242.786136,113.263054 L242.786136,110.800814 L241.954676,109.569694 L242.786136,107.9282 L242.786136,104.23484 L241.123217,100.951853 L241.123217,98.8999859 L237.38165,98.8999859 L234.887272,98.8999859 L234.887272,100.951853 L238.628839,104.23484 L234.887272,104.23484 L232.392893,106.286707 L230.729975,108.748947 L232.392893,110.800814 L230.729975,112.442308 C229.067056,112.989472 226.434101,113.810219 222.831111,114.904548 C219.22812,115.998877 214.79367,115.725295 209.527761,114.083801 C205.370464,111.895143 202.460356,110.800814 200.797437,110.800814 C199.134519,110.800814 197.88733,111.895143 197.05587,114.083801 L192.067114,120.239402 L182.921061,121.060149 L182.089602,119.418655 L182.921061,114.904548 C181.812449,114.357383 180.288106,114.083801 178.348035,114.083801 C175.437927,114.083801 172.527819,119.008282 170.033441,121.880895 C170.587747,118.597908 173.359278,115.17813 178.348035,111.621561 L180.426683,109.569694 L182.921061,107.9282 L178.348035,105.46596 C179.179494,105.192378 179.872377,104.782004 180.426683,104.23484 C182.505331,101.362226 181.673872,98.4896125 180.426683,97.2584924 C179.595224,96.4377456 178.070881,96.0273722 175.853656,96.0273722 L163.797496,96.0273722 L155.898632,96.0273722 L150.078416,99.7207327 L145.505389,99.7207327 C145.505389,98.6264036 145.505389,97.3952835 145.505389,96.0273722 C145.505389,94.6594609 148.138344,91.2396827 153.404253,85.7680376 L154.235713,83.3057972 L152.572794,81.6643037 L152.572794,80.0228102 L153.404253,78.3813166 L150.078416,73.456836 L142.595282,68.9427288 L142.179552,66.8908618 L139.685174,64.8389949 L137.606525,62.3767546 L137.190796,59.5041409 L135.943607,58.2730207 C135.112147,58.2730207 134.419265,58.4098119 133.864958,58.6833941 C133.310652,58.9569764 132.756346,59.7777231 132.20204,61.1456344 L132.617769,65.6597417 L133.864958,67.7116086 L138.853715,70.5842223 L137.606525,73.456836 C136.497913,74.2775828 132.894922,74.551165 126.797554,74.2775828 C120.700185,74.0040005 113.909933,72.2257158 106.426799,68.9427288 L110.584096,64.4286215 L110.584096,61.1456344 L113.494204,56.2211538 L114.325663,51.7070466 L114.325663,49.2448063 L113.078474,46.7825659 L113.078474,49.2448063 L102.685232,63.6078747 L102.685232,71.4049691 L107.673988,75.0983295 C108.782601,76.4662408 109.336907,77.5605698 109.336907,78.3813166 C109.336907,79.2020634 107.951141,79.886019 105.17961,80.4331835 C92.1534133,81.2539303 83.7002431,81.6643037 79.8200994,81.6643037 C75.9399557,81.6643037 72.1983885,82.4850505 68.5953979,84.126544 C67.2096323,85.4944553 65.6852901,87.1359488 64.0223714,89.0510246 C62.3594526,90.9661004 59.1721917,92.1972206 54.4605886,92.7443851 L42.8201575,92.7443851 L38.2471309,97.2584924 L23.2808623,97.2584924 L10.8089718,97.2584924 L0.831459368,92.7443851 Z M142.595282,41.8580853 L144.2582,37.3439781 L142.595282,36.1128579 L142.595282,34.060991 L144.2582,34.060991 L142.595282,32.8298708 L137.606525,32.8298708 L136.359336,30.3676305 C132.756346,29.820466 130.539121,29.820466 129.707661,30.3676305 C128.876202,30.914795 128.599049,31.7355418 128.876202,32.8298708 L133.449229,36.1128579 L139.685174,41.8580853 L142.595282,41.8580853 Z M151.325605,54.5796603 L156.730091,51.7070466 L157.97728,48.4240595 L157.97728,45.5514458 L161.718847,44.3203256 L161.718847,42.6788321 L153.404253,42.6788321 L149.246957,48.4240595 L148.415497,51.7070466 L149.246957,53.7589135 L151.325605,54.5796603 Z" id="Outline" stroke="#9AA5E4" fill="#AFD5EF"></path>
                        </g>
                        <g id="America">
                            <path d="M67.0364116,2.89930556 L76.1401218,4.14186509 L76.9677318,0 L80.2781719,0 L89.7956871,2.07093254 L90.2094921,0 L93.5199322,0.414186509 C95.1751522,3.45155424 97.5200473,4.14186509 100.554617,2.48511905 C102.209837,2.48511905 103.589187,2.48511905 104.692667,2.48511905 C108.278978,4.69411377 110.623873,5.79861112 111.727353,5.79861112 C112.554963,5.79861112 113.520508,5.79861112 114.623988,5.79861112 C122.348348,9.38822753 127.038138,12.4255953 128.693358,14.9107143 C129.934773,16.9816469 132.831408,21.5376985 143.590338,24.0228175 C145.245558,25.6795635 148.555999,28.5788691 152.694049,31.0639882 C152.694049,29.4072421 152.694049,28.3027448 152.694049,27.7504961 L159.314929,26.9221231 L168.004834,33.9632937 C170.211794,35.3439154 172.694624,36.5864749 175.453324,37.6909723 C175.453324,38.5193453 175.453324,39.2096562 175.453324,39.7619048 L178.349959,39.3477183 L182.488009,41.0044644 L186.626059,43.9037699 L186.626059,46.8030755 L190.350304,46.8030755 L193.660745,48.045635 L198.626405,51.7733136 L201.109235,57.5719247 L201.109235,63.3705359 L199.454015,65.4414684 L191.59172,65.4414684 L184.970839,63.3705359 L180.005179,57.9861112 L180.005179,55.9151787 L178.763764,55.5009922 L179.177569,59.6428573 L180.418984,62.9563493 L183.315619,63.7847224 L183.315619,69.5833335 L181.660399,72.0684525 L179.177569,72.0684525 L178.763764,77.4528772 L173.384299,79.1096232 L172.970494,81.5947422 L170.901469,83.2514883 L168.004834,80.3521827 L167.177224,79.1096232 L165.935809,78.6954367 L165.935809,75.7961311 L160.970149,72.482639 L160.556344,72.8968256 L160.556344,78.2812502 L153.521659,77.4528772 C150.762959,75.2438824 148.280128,74.0013229 146.073168,73.7251986 C143.866208,73.4490742 139.038483,73.1729499 131.589993,72.8968256 L130.348578,72.0684525 L124.969113,72.0684525 L123.727698,72.8968256 L106.347888,72.0684525 C102.761577,72.8968256 99.1752673,74.1393851 95.5889573,75.7961311 C95.0372172,75.5200068 94.7613472,75.2438824 94.7613472,74.9677581 L94.7613472,69.169147 L95.5889573,68.340774 L91.0371021,67.0982144 L86.071442,65.0272819 L79.4505619,62.9563493 C72.5538117,62.9563493 68.0019566,63.9227845 65.7949966,65.8556549 C66.0708666,66.1317792 66.3467366,66.4079036 66.6226066,66.6840279 L72.8296817,67.0982144 L77.3815368,67.9265874 L77.3815368,75.3819446 L72.0020717,77.0386906 L72.0020717,82.4231153 L67.8640216,84.0798613 L70.3468517,86.9791669 L80.2781719,86.9791669 L81.5195869,88.2217264 L81.5195869,90.7068454 L82.3471969,91.1210319 L85.243832,91.5352185 L91.0371021,95.6770835 L93.1061272,103.546627 L97.6579823,108.931052 L97.6579823,114.729663 L96.0027623,118.043155 L96.4165673,122.18502 L100.968422,123.841766 L101.796032,126.741072 L102.209837,130.054564 L104.692667,131.71131 L104.692667,137.509921 L103.865057,139.580853 L98.4855923,141.2376 L88.1404671,141.651786 C79.5884969,147.726521 72.8296817,149.245205 67.8640216,146.207838 C64.5535815,146.483962 61.1052064,146.760086 57.5188964,147.036211 C55.5878063,147.312335 54.4843263,147.726521 54.2084563,148.27877 C53.7946513,149.107143 54.6222613,149.107143 52.9670412,149.52133 C51.8635612,149.797454 50.2083412,149.659392 48.0013811,149.107143 C46.0702911,148.831019 44.6909411,149.52133 43.863331,151.178076 C43.035721,151.178076 39.7252809,150.763889 38.4838659,149.935516 C37.6562559,149.383268 37.1045159,148.969081 36.8286459,148.692957 L34.7596208,148.692957 L33.9320108,151.178076 C32.8285308,152.834822 31.7250507,153.110946 30.6215707,152.006449 C29.5180907,151.4542 27.8628707,150.625827 25.6559106,149.52133 L18.2074204,151.592262 L17.3798104,153.663195 L15.7245904,154.491568 L11.5865403,154.491568 L11.1727353,156.976687 L5.79327014,159.875992 L4.96566012,162.775298 L4.96566012,166.08879 C1.65522004,164.708168 5.70276741e-14,162.775298 5.68434189e-14,160.290179 C5.68434189e-14,157.80506 5.68434189e-14,153.663195 5.68434189e-14,147.864584 L2.48283006,145.793651 L2.48283006,144.136905 C6.34501015,144.689154 8.68990521,142.756283 9.51751522,138.338294 C11.1727353,136.957672 19.5867705,130.882937 34.7596208,120.114088 L37.2424509,118.043155 L37.2424509,109.345238 L38.4838659,107.274306 L42.208111,97.3338296 C43.311591,95.4009592 45.3806161,94.5725862 48.4151861,94.8487105 C48.4151861,94.0203375 48.4151861,92.777778 48.8289912,92.3635915 C49.6566012,92.3635915 53.3808463,92.0874671 60.0017264,91.5352185 L62.0707515,90.7068454 L62.0707515,85.3224208 L60.8293364,83.2514883 L60.0017264,79.1096232 L60.0017264,72.8968256 C54.7601963,71.5162039 52.0014962,69.0310848 51.7256262,65.4414684 C51.7256262,63.7847224 51.7256262,62.5421628 51.7256262,61.7137898 L51.3118212,60.4712303 L50.8980162,54.2584327 L50.8980162,47.6314485 L53.7946513,45.1463295 L53.7946513,42.6612104 L80.6919769,23.608631 L86.071442,20.2951389 L97.2441773,21.123512 L99.3132023,20.2951389 L100.140812,19.8809524 L93.9337372,15.7390873 L90.6232971,14.9107143 L85.657637,13.2539683 L80.2781719,13.2539683 L67.0364116,8.69791669 L67.0364116,2.89930556 Z M150.625024,50.5307541 L153.107854,53.4300596 L153.107854,56.7435517 L154.349269,56.7435517 L166.349614,56.3293652 L168.832444,54.2584327 L166.763419,53.0158731 C160.142539,51.6352514 156.004489,50.8068784 154.349269,50.5307541 C152.694049,50.2546297 151.452634,50.2546297 150.625024,50.5307541 Z" id="Depth" stroke="#9AA5E5" fill="#9AA5E5"></path>
                            <path d="M4.96566012,160.290179 C1.65522004,159.185682 5.69954484e-14,156.976687 5.68434189e-14,153.663195 C5.68434189e-14,150.349703 5.68434189e-14,148.416832 5.68434189e-14,147.864584 L2.48283006,145.793651 L2.48283006,144.136905 C4.4139201,144.413029 5.93120514,144.136905 7.03468517,143.308532 C8.68990521,142.065973 9.51751522,139.166667 9.51751522,138.338294 C9.51751522,137.786045 17.9315504,131.71131 34.7596208,120.114088 L38.0700609,117.214782 L38.0700609,116.386409 L37.2424509,115.558036 L37.2424509,109.345238 L38.4838659,107.274306 L42.208111,97.3338296 C43.311591,95.4009592 45.3806161,94.5725862 48.4151861,94.8487105 C48.4151861,94.0203375 48.5531211,93.1919645 48.8289912,92.3635915 L60.0017264,91.5352185 L63.3121665,90.2926589 C63.5880365,89.1881616 63.4501015,88.6359129 62.8983615,88.6359129 C62.3466215,88.6359129 62.0707515,85.5985452 62.0707515,79.5238097 L60.8293364,77.4528772 L60.0017264,73.3110121 C60.0017264,72.2065147 60.0017264,70.1355822 60.0017264,67.0982144 C53.3808463,65.1653441 50.7600812,61.851852 52.1394312,57.1577382 L51.3118212,54.6726192 L50.8980162,47.6314485 L53.7946513,45.1463295 L53.7946513,42.6612104 L60.8293364,37.6909723 L81.1057819,23.1944445 L86.071442,20.2951389 L97.2441773,21.123512 L99.3132023,20.2951389 L102.623642,18.2242064 L102.623642,15.7390873 L93.9337372,9.94047621 L90.6232971,9.11210319 L85.657637,7.45535716 L80.2781719,7.45535716 L68.6916316,3.31349207 L76.1401218,4.14186509 L76.9677318,0 L80.2781719,5.56118273e-16 L88.1404671,1.65674604 L89.7956871,2.07093254 L90.2094921,0 L93.5199322,0.414186509 C94.6234122,2.34705688 95.8648273,3.31349207 97.2441773,3.31349207 C98.6235273,3.31349207 99.7270074,3.03736773 100.554617,2.48511905 L104.692667,2.48511905 C108.554848,4.69411377 110.899743,5.79861112 111.727353,5.79861112 C112.554963,5.79861112 113.520508,5.79861112 114.623988,5.79861112 C122.624218,9.66435187 127.314008,12.7017196 128.693358,14.9107143 C130.762383,18.2242064 134.072823,21.951885 143.590338,24.0228175 C146.900778,27.0601852 149.935349,29.4072421 152.694049,31.0639882 L156.418294,29.8214286 L153.107854,27.7504961 L159.314929,26.9221231 L168.004834,33.9632937 L175.039519,37.6909723 L170.073859,38.9335318 L172.970494,41.8328374 L173.384299,43.0753969 L174.625714,43.0753969 L174.625714,39.7619048 L178.349959,39.3477183 L182.488009,41.0044644 L186.212254,43.9037699 L181.660399,44.732143 L178.763764,45.560516 L178.349959,46.388889 L180.418984,47.6314485 L184.143229,47.217262 L185.798449,46.8030755 L190.350304,46.8030755 L193.660745,48.045635 L198.626405,51.7733136 L201.109235,57.5719247 L199.454015,59.6428573 L191.59172,59.6428573 L184.970839,57.5719247 L180.832789,52.6016866 C184.694969,54.8106813 187.039864,55.9151787 187.867474,55.9151787 C189.108889,55.9151787 193.660745,55.9151787 192.41933,54.2584327 C191.177915,52.6016866 190.76411,51.3591271 184.557034,50.5307541 C180.418984,49.9785054 177.798219,49.7023811 176.694739,49.7023811 L175.039519,51.7733136 L170.073859,49.7023811 L169.246249,48.4598215 L166.763419,47.217262 L155.176879,44.732143 C151.314699,44.1798943 149.383609,44.5940808 149.383609,45.9747025 C149.383609,47.3553242 149.935349,49.0120702 151.038829,50.9449406 L153.107854,53.4300596 L147.728388,55.9151787 L154.349269,56.7435517 L166.349614,56.3293652 L168.832444,54.2584327 L169.246249,53.4300596 L178.763764,55.0868057 L179.177569,59.6428573 L180.418984,62.9563493 L182.901814,63.7847224 L181.660399,66.2698414 L179.177569,66.2698414 L178.763764,71.654266 L173.384299,73.3110121 L172.970494,75.7961311 L170.901469,77.4528772 L168.004834,74.5535716 L167.177224,73.3110121 L166.349614,72.8968256 L171.315274,72.0684525 L170.901469,70.4117065 L165.935809,69.99752 L160.970149,66.6840279 L158.487319,67.9265874 L157.659709,69.99752 L160.556344,71.654266 L160.556344,72.482639 L153.521659,71.654266 C150.762959,69.4452713 148.280128,68.2027118 146.073168,67.9265874 C143.866208,67.6504631 139.038483,67.3743388 131.589993,67.0982144 L130.348578,66.2698414 L124.969113,66.2698414 L123.727698,67.0982144 L106.347888,66.2698414 C102.209837,67.3743388 99.3132023,68.340774 97.6579823,69.169147 C96.0027623,69.99752 95.0372172,69.99752 94.7613472,69.169147 L97.6579823,65.8556549 L97.6579823,63.7847224 L96.0027623,62.5421628 L91.0371021,61.2996033 L86.071442,59.2286708 L79.4505619,57.1577382 C72.5538117,57.1577382 68.1398916,57.9861112 66.2088016,59.6428573 C64.2777115,61.2996033 63.4501015,62.8182872 63.7259715,64.1989089 L66.6226066,66.6840279 L72.4158767,67.0982144 L77.3815368,67.9265874 L77.3815368,69.5833335 L73.6572917,70.825893 L69.1054366,72.0684525 L71.5882667,74.1393851 L72.0020717,76.6245041 L65.7949966,79.1096232 L64.5535815,81.5947422 L67.8640216,84.0798613 L70.3468517,86.9791669 L80.2781719,86.9791669 L81.5195869,88.2217264 L80.2781719,89.8784724 L82.3471969,91.1210319 L85.243832,91.5352185 L91.0371021,95.6770835 L93.1061272,103.546627 L97.6579823,108.931052 L95.1751522,113.90129 L91.4509072,114.729663 L91.4509072,115.972222 L96.0027623,116.386409 L96.4165673,122.18502 L100.968422,123.841766 L101.796032,126.741072 L102.209837,130.054564 L104.692667,131.71131 L103.865057,133.782242 L98.4855923,135.438988 L88.1404671,135.853175 C81.7954569,139.99504 77.1056668,142.065973 74.0710967,142.065973 C71.0365267,142.065973 68.9675016,141.513724 67.8640216,140.409226 L57.9327014,141.2376 C55.7257413,141.513724 54.4843263,142.065973 54.2084563,142.894346 C53.9325863,143.722719 51.8635612,143.860781 48.0013811,143.308532 C45.7944211,143.308532 44.415071,143.998843 43.863331,145.379465 C41.932241,145.379465 40.1390859,144.965278 38.4838659,144.136905 L36.8286459,142.894346 L34.7596208,142.894346 L33.9320108,145.379465 C33.1044008,146.760086 32.1388558,147.174273 31.0353757,146.622024 C29.9318957,146.069775 28.1387407,145.10334 25.6559106,143.722719 L18.2074204,145.793651 L17.3798104,147.864584 L15.7245904,148.692957 L11.5865403,148.692957 L11.1727353,151.178076 L5.79327014,154.077381 L4.96566012,156.976687 L4.96566012,160.290179 Z" id="Outline" stroke="#9AA5E5" fill="#AFD5EF"></path>
                        </g>
                        <g id="Baffin-Island" transform="translate(194.114131, 31.469455)">
                            <path d="M0.409287989,16.2592184 L0,11.8010456 L9.41362375,10.5335259 C8.86790643,7.0077814 8.86790643,4.95352532 9.41362375,4.37075763 C10.2321997,3.49660611 11.4600637,1.6608879 12.6879277,1.74830305 C13.9157916,1.83571821 15.1436556,1.74830305 15.1436556,3.05953034 C15.1436556,3.93368187 15.1436556,4.9826637 15.1436556,6.20647584 L16.3715196,7.51770313 L19.4411795,6.6435516 C19.5776088,3.38005257 19.7822528,1.60261113 20.0551115,1.31122729 C20.4643995,0.874151527 20.8736875,0.349660611 21.6922634,0.437075763 C22.5108394,0.524490916 26.6037193,1.74830305 27.0130073,2.18537882 C28.9230179,2.18537882 30.9694579,2.36020912 33.1523271,2.70986973 C36.2902017,4.22506571 37.9273537,5.39060108 38.063783,6.20647584 C38.2002123,7.0223506 38.268427,9.46997487 38.268427,13.5493487 L38.063783,14.5109153 L31.9244632,14.5109153 L27.4222953,16.2592184 L21.6922634,15.8221426 L15.1436556,18.0075214 L11.0507757,18.4445972 C11.0507757,19.9015164 10.0957704,20.629976 8.18575979,20.629976 C6.27574917,20.629976 4.91145587,20.1637619 4.09287989,19.2313336 L0.409287989,16.2592184 Z" id="Depth" stroke="#2EC7FF" fill="#2EC7FF"></path>
                            <path d="M38.063783,8.82893042 L31.9244632,8.82893042 L27.4222953,10.5772335 L21.6922634,10.1401577 L18.0086715,11.451385 L15.1436556,12.3255365 L11.0507757,12.7626123 C10.7779171,14.2195315 9.55005308,14.9479911 7.36718381,14.9479911 C5.18431453,14.9479911 3.27430391,14.9188527 1.63715196,14.860576 L0.409287989,11.8010456 L10.2321997,10.1401577 L13.0972157,7.51770313 L13.5065036,6.20647584 L10.2321997,6.6435516 C9.14076509,4.89524855 9.00433576,3.72971318 9.82291174,3.1469455 C11.0507757,2.27279397 12.6879277,0.961566679 13.9157916,1.39864244 C14.7343676,1.69002628 15.1436556,3.1469455 15.1436556,5.76940008 L16.3715196,7.08062736 L19.4411795,6.20647584 L20.0551115,1.39864244 C20.3279701,0.233107074 21.1465461,-0.20396869 22.5108394,0.0874151527 C23.8751327,0.378798995 25.3758553,0.961566679 27.0130073,1.83571821 L33.1523271,2.27279397 C36.1537724,4.02109702 37.7909243,5.18663239 38.063783,5.76940008 C38.3366417,6.35216776 38.3366417,7.37201121 38.063783,8.82893042 Z" id="Outline" stroke="#2EC7FF" fill="#61D4FF"></path>
                        </g>
                        <g id="Greenland" transform="translate(190.616579, 45.455879)">
                            <path d="M-2.84217094e-14,31.2698031 L-2.84217094e-14,26.3486537 L15.9138612,14.2679156 L15.9138612,12.4053973 C14.8257339,11.7902536 14.1456544,11.2092846 13.8736226,10.6624902 C13.6015908,10.1156959 13.6015908,8.33861415 13.8736226,5.33124511 L18.7701952,1.64038311 L28.9713883,1.23028733 L30.6035792,0.410095778 C37.4043746,0.136698593 41.21282,0.136698593 42.0289154,0.410095778 C43.2530586,0.820191556 46.1093927,1.64038311 46.9254881,4.10095778 C48.0136154,4.10095778 49.6458063,3.96425919 51.8220608,3.690862 L55.4944903,2.46057467 C58.7588721,3.28076622 60.5270789,3.96425919 60.7991107,4.51105356 C61.0711425,5.05784793 61.2071584,7.24502541 61.2071584,11.072586 C60.6630948,11.8927776 60.255047,12.4395719 59.9830152,12.7129691 C59.7109834,12.9863663 59.5749675,14.0514762 59.5749675,15.9082987 L59.5749675,18.7789692 L59.1669198,20.6073128 C53.9983153,20.2655664 50.8699494,20.5047889 49.7818222,21.3249804 C48.6936949,22.145172 45.4293131,24.7424453 39.9886768,29.1168002 C38.6285177,29.8230763 37.4043746,30.1762143 36.3162473,30.1762143 C34.6840564,30.1762143 31.0116269,29.8344678 29.7874838,30.3470876 C28.9713883,30.688834 28.019277,31.2356284 26.9311497,31.9874707 L25.2989588,32.5000904 L15.5058135,31.6798988 C14.1456544,31.8621636 13.0575271,32.1355608 12.2414317,32.5000904 C11.0172885,33.0468848 4.48852495,33.5936791 2.44828634,32.5000904 C1.08812726,31.7710312 0.272031815,31.3609355 -2.84217094e-14,31.2698031 Z" id="Depth" stroke="#9AA5E5" fill="#9AA5E5"></path>
                            <path d="M0,25.938558 C10.6092408,17.7366424 15.9138612,13.6356846 15.9138612,13.6356846 C15.9138612,13.6356846 15.9138612,13.0888902 15.9138612,11.9953015 L17.1380044,10.7650142 L17.5460521,7.89434372 C16.185893,7.07415217 15.5058135,6.66405639 15.5058135,6.66405639 C15.5058135,6.66405639 13.0575271,5.43376906 13.8736226,4.6135775 C14.4176862,4.06678313 16.0498771,2.97319439 18.7701952,1.33281128 L28.9713883,0.9227155 L30.6035792,0.102523944 C38.4925018,-0.170873241 43.1170427,0.102523944 44.4772018,0.9227155 C45.8373608,1.74290706 46.6534563,2.6997972 46.9254881,3.79338595 L51.8220608,3.38329017 L55.4944903,2.15300283 C59.3029357,2.97319439 61.2071584,3.93008454 61.2071584,5.02367328 C61.2071584,6.11726202 60.6630948,6.93745358 59.5749675,7.48424795 L55.0864426,7.48424795 C53.7262835,8.57783669 53.5902676,9.39802824 54.6783948,9.94482261 C56.3105857,10.7650142 59.5749675,12.3028733 59.5749675,12.969279 C59.5749675,13.4135494 59.4389516,14.182479 59.1669198,15.2760677 C53.7262835,15.2760677 50.4619017,15.5494649 49.3737744,16.0962593 C48.2856472,16.6430537 45.7013449,18.6935325 41.6208677,22.2476959 C40.2607086,23.8880791 38.7645337,24.7082706 37.1323428,24.7082706 C34.6840564,24.7082706 29.379436,24.7082706 28.5633406,25.5284622 C28.019277,26.0752565 26.9311497,26.6220509 25.2989588,27.1688453 C19.3142589,26.6220509 16.0498771,26.3486537 15.5058135,26.3486537 C14.9617498,26.3486537 13.7376067,26.6220509 11.833384,27.1688453 C9.65712944,27.7156397 7.48087492,27.8523382 5.30462039,27.5789411 C3.12836587,27.3055439 1.36015908,26.7587495 0,25.938558 Z" id="Outline" stroke="#9AA5E5" fill="#AFD5EF"></path>
                        </g>
                        <g id="Iceland" transform="translate(204.606787, 87.415153)">
                            <path d="M-3.55271368e-15,6.19190665 L-3.55271368e-15,1.82114901 C0.139902076,0.607049671 0.454681748,-3.93187338e-16 0.944339015,0 C1.43399628,4.58293155e-16 2.13350666,6.73960522e-16 3.04287016,6.47002101e-16 L3.46257639,1.45691921 C6.89017726,2.42819868 9.12861048,3.03524836 10.1778761,3.27806822 C10.1778761,4.12793776 10.1778761,5.94908678 10.1778761,8.74151527 C7.16998141,8.4986954 5.07145027,8.25587553 3.88228262,8.01305566 C2.69311497,7.77023579 1.39902076,7.16318612 -3.55271368e-15,6.19190665 Z" id="Depth" stroke="#9AA5E5" fill="#9AA5E5"></path>
                            <path d="M0.944339015,1.77635684e-15 C0.104926557,0.971279474 -0.174877595,1.57832915 0.104926557,1.82114901 C0.524632786,2.18537882 2.2034577,3.27806822 3.88228262,3.64229803 C5.00149923,3.8851179 7.10003037,4.12793776 10.1778761,4.37075763 L10.1778761,3.27806822 C5.70100961,2.30678875 3.46257639,1.69973908 3.46257639,1.45691921 C3.46257639,1.21409934 3.32267431,0.728459605 3.04287016,1.77635684e-15 L0.944339015,1.77635684e-15 Z" id="Outline" stroke="#9AA5E5" fill="#AFD5EF"></path>
                        </g>
                        <g id="Cuba" transform="translate(85.690022, 66.435516)">
                            <path d="M8.74387977,13.9864244 L6.44285878,13.575059 L4.60204199,12.3409627 L4.60204199,9.87277018 L-1.42108547e-14,6.58184679 L-1.42108547e-14,0 C4.60204199,2.33107074 7.20986578,4.11365424 7.82347137,5.34775052 C8.43707697,6.58184679 8.74387977,7.67882125 8.74387977,8.63867391 L8.74387977,13.9864244 Z" id="Depth" stroke="#2EC7FF" fill="#2EC7FF"></path>
                            <path d="M8.74387977,8.63867391 L6.44285878,8.22730848 L4.60204199,6.99321221 C5.21564758,5.62199413 5.36904898,4.79926328 5.06224618,4.52501967 C4.60204199,4.11365424 0.920408397,2.05682712 0.460204199,1.6454617 C0.1534014,1.37121808 -3.28647476e-15,0.822730848 5.32907052e-15,0 C5.21564758,2.74243616 7.97687277,4.79926328 8.28367557,6.17048136 C8.59047837,7.54169944 8.74387977,8.36443029 8.74387977,8.63867391 Z" id="Outline" stroke="#2EC7FF" fill="#61D4FF"></path>
                        </g>
                        <g id="Bermuda" transform="translate(89.187574, 76.925334)">
                            <path d="M0,4.73498744 L0,0 L5.82925318,0 C6.10683667,3.50459471e-16 6.38442015,0.121409934 6.66200364,0.364229803 C6.93958712,0.607049671 7.63354583,1.45691921 8.74387977,2.91383842 L8.74387977,7.64882586 L8.32750454,8.74151527 C8.04992106,8.25587553 7.77233757,7.89164573 7.49475409,7.64882586 C7.21717061,7.40600599 6.24562841,7.04177619 4.5801275,6.55613645 C4.5801275,6.79895632 4.30254401,6.92036625 3.74737704,6.92036625 C2.91462659,6.92036625 2.08187614,7.10248115 0.416375227,5.46344704 C0.138791742,5.22062717 0,4.9778073 0,4.73498744 Z" id="Depth" stroke="#2EC7FF" fill="#2EC7FF"></path>
                            <path d="M4.5801275,1.82114901 C4.5801275,2.06396888 4.16375227,2.18537882 3.33100182,2.18537882 C2.49825136,2.18537882 1.66550091,1.82114901 0.832750454,1.09268941 L0,1.77635684e-15 L2.91462659,3.66794265e-15 C4.02496053,2.34648904e-15 4.85771098,2.34648904e-15 5.41287795,3.66794265e-15 C5.96804492,5.00097004e-15 6.38442015,0.242819868 6.66200364,0.728459605 L8.74387977,2.91383842 L8.32750454,4.00652783 C8.04992106,3.52088809 7.77233757,3.15665829 7.49475409,2.91383842 C7.21717061,2.67101855 6.24562841,2.30678875 4.5801275,1.82114901 Z" id="Outline" stroke="#2EC7FF" fill="#61D4FF"></path>
                        </g>
                        <g id="Indonesia" transform="translate(269.311497, 220.286185)">
                            <path d="M9.65324327,29.7211519 L10.0729495,27.5982125 L10.0729495,22.07857 L5.45618098,19.1064548 L7.55471212,16.9835154 L7.55471212,2.97211519 C6.22699497,0.990705063 5.40540841,-1.38806322e-14 5.08995246,2.13162821e-14 C4.61676852,7.41116535e-14 4.19706229,0.424587884 4.19706229,0.424587884 C4.19706229,0.424587884 3.91725814,0.990705063 3.35764983,2.12293942 L1.77635684e-15,10.6146971 L1.77635684e-15,16.1343396 C0.839412458,21.7955114 2.23843322,25.3337438 4.19706229,26.7490367 C6.15569136,28.1643297 7.97441835,29.1550347 9.65324327,29.7211519 Z" id="Depth" stroke="#2EC7FF" fill="#2EC7FF"></path>
                            <path d="M9.76019868,24.2015094 C5.84294055,22.8341925 3.32470317,21.0566805 2.20548656,18.8689734 C0.526661644,15.5874128 -0.312750814,11.075267 0.106955415,10.2548769 C0.386759568,9.7079501 1.64587826,6.69985289 3.88431148,1.23058522 C4.37261617,0.410195075 4.70454546,-3.49940412e-15 4.88009934,-3.55271368e-15 C5.14343016,-3.55271368e-15 7.66166754,2.46117045 7.66166754,3.2815606 C7.66166754,3.82848736 7.66166754,6.76821873 7.66166754,12.1007547 C6.47114732,13.0578765 5.54395792,13.9466325 4.88009934,14.7670227 C3.88431148,15.9976079 2.62519279,16.8179981 4.30401771,18.0485833 C5.42323432,18.8689734 7.38186339,20.2362904 10.1799049,22.150534 L9.76019868,24.2015094 Z" id="Outline" stroke="#2EC7FF" fill="#61D4FF"></path>
                        </g>
                        <g id="Borneo" transform="translate(281.552929, 236.020912)">
                            <path d="M-2.84217094e-14,9.17859103 L-2.84217094e-14,3.49660611 C0.308840433,2.62245458 0.463260649,2.0396869 0.463260649,1.74830305 C0.463260649,1.31122729 0.857890091,1.31122729 1.71578018,0.874151527 C2.28770691,0.582767684 3.01405385,0.291383842 3.89482101,-1.0658141e-14 L22.339458,0.874151527 L22.339458,6.55613645 C22.0763717,7.64882586 21.7904083,8.37728546 21.4815679,8.74151527 C21.1727274,9.10574507 20.457819,9.83420467 19.3368426,10.9268941 C15.3562326,12.3838133 13.2115074,13.2579648 12.902667,13.5493487 C12.5938265,13.8407325 10.3061196,13.8407325 6.03954624,13.5493487 C2.63086295,11.6553537 0.772101082,10.4898183 0.463260649,10.0527426 C0.154420216,9.61566679 -2.84217094e-14,9.32428295 -2.84217094e-14,9.17859103 Z" id="Depth" stroke="#2EC7FF" fill="#2EC7FF"></path>
                            <path d="M6.03954624,7.86736374 C10.3289967,8.15874758 12.6167036,8.15874758 12.902667,7.86736374 C13.1886303,7.5759799 15.3333556,6.70182837 19.3368426,5.24490916 C20.4806961,4.07937379 21.1956045,3.35091419 21.4815679,3.05953034 C21.7675312,2.7681465 22.0534946,2.0396869 22.339458,0.874151527 L3.89482101,0 C1.6071141,0.582767684 0.463260649,1.16553537 0.463260649,1.74830305 C0.463260649,2.62245458 -0.823574487,3.49660611 0.892205694,4.8078334 C2.03605915,5.68198492 3.75183933,6.70182837 6.03954624,7.86736374 Z" id="Outline" stroke="#2EC7FF" fill="#61D4FF"></path>
                        </g>
                        <g id="Philippines" transform="translate(311.282120, 239.517518)">
                            <path d="M6.06242331,8.74151527 L2.33170127,8.37728546 L0.466340254,7.28459605 L-2.66453526e-15,4.73498744 L-2.66453526e-15,-1.0658141e-14 C3.10893503,1.00459262e-14 4.97429605,0.242819868 5.59608305,0.728459605 C6.21787006,1.21409934 6.68421031,1.82114901 6.99510382,2.54960862 L6.99510382,7.28459605 L6.06242331,8.74151527 Z" id="Depth" stroke="#2EC7FF" fill="#2EC7FF"></path>
                            <path d="M2.33170127,3.64229803 L6.06242331,4.00652783 L6.99510382,2.54960862 C6.37331681,1.33550928 5.59608305,0.607049671 4.66340254,0.364229803 C3.73072204,0.121409934 2.17625452,5.33961108e-14 0,5.68434189e-14 L0.466340254,2.54960862 L2.33170127,3.64229803 Z" id="Land" stroke="#2EC7FF" fill="#61D4FF"></path>
                        </g>
                        <g id="Papua-New-Guinea" transform="translate(311.282120, 257.000549)">
                            <path d="M15.8694893,25.032521 C15.8694893,24.2378378 15.8694893,22.7809186 15.8694893,20.6617634 L23.3866157,23.4431546 L27.9804153,23.4431546 L27.9804153,18.2777137 C22.6905855,16.9532417 19.4888465,16.0261113 18.3751981,15.4963225 C16.7047255,14.7016393 15.4518711,13.1122729 15.4518711,11.9202481 C15.4518711,10.7282233 14.6166348,7.94683206 12.9461623,7.15214885 C11.2756897,6.35746565 7.93474463,5.16544084 7.09950835,4.37075763 C6.26427208,3.57607443 4.17618138,1.58936641 4.17618138,-2.84217094e-14 C3.34094511,0.264894402 2.36650278,0.529788804 1.25285442,0.794683206 L1.25285442,5.96012404 C1.53126651,7.81438486 1.8096786,8.87396247 2.08809069,9.13885687 C1.8096786,9.40375127 1.11364837,9.80109287 1.91846539e-13,10.3308817 L1.92040692e-13,15.4963225 C1.11364837,16.2910057 1.94888465,17.2181361 2.50570883,18.2777137 C3.34094511,19.0723969 4.17618138,20.2644218 5.01141766,20.2644218 C5.84665394,20.2644218 8.76998091,20.2644218 9.60521718,20.6617634 C10.4404535,21.059105 10.8580716,20.6617634 11.2756897,21.8537882 C11.6933079,23.045813 13.1549714,25.032521 13.3637804,25.032521 C13.5725895,25.032521 15.034253,27.019229 15.8694893,25.032521 Z" id="Depth" stroke="#2EC7FF" fill="#2EC7FF"></path>
                            <path d="M4.17618138,-1.42108547e-14 C4.73300557,2.11915522 5.84665394,3.70852163 7.51712649,4.76809924 C10.0228353,6.35746565 13.3637804,6.35746565 14.6166348,8.74151527 C15.8694893,11.1255649 14.6166348,13.9069561 18.3751981,15.4963225 C20.8809069,16.5559001 23.6650278,17.4830305 26.7275609,18.2777137 L23.3866157,18.2777137 L15.034253,15.0989809 L15.034253,17.8803721 L13.3637804,17.8803721 L15.8694893,19.8670801 C15.5910772,20.9266578 14.7558409,20.9266578 13.3637804,19.8670801 C11.2756897,18.2777137 12.110926,15.8936641 10.0228353,15.4963225 C7.93474463,15.0989809 6.26427208,15.4963225 4.59379952,14.7016393 C2.92332697,13.9069561 1.25285442,11.1255649 1.25285442,11.1255649 C1.25285442,11.1255649 0.974442323,10.8606705 0.417618138,10.3308817 L4.17618138,8.34417366 C4.73300557,8.07927926 4.87221161,7.54949046 4.59379952,6.75480725 C4.17618138,5.56278244 2.50570883,4.76809924 2.08809069,3.97341603 C1.8096786,3.44362723 1.53126651,2.38404962 1.25285442,0.794683206 L4.17618138,-1.42108547e-14 Z" id="Land" stroke="#2EC7FF" fill="#61D4FF"></path>
                        </g>
                        <g id="Australia" transform="translate(229.089650, 255.252246)">
                            <path d="M9.9475983e-14,14.3610608 L9.9475983e-14,7.79600443 C2.49273037,7.2489164 3.73909555,6.97537239 3.73909555,6.97537239 C3.73909555,6.97537239 5.67788583,5.74442432 9.5554664,3.28252818 C11.2172866,3.00898417 12.4636518,2.73544015 13.294562,2.46189614 C14.1254721,2.18835212 15.5103223,1.50449208 17.4491126,0.410316023 C19.9418429,-0.136772008 21.8806332,-0.136772008 23.2654834,0.410316023 C24.6503336,0.957404053 26.4506389,1.36772008 28.6663992,1.64126409 C33.6518599,2.18835212 37.5294405,2.46189614 40.2991409,2.46189614 C44.4536915,2.46189614 46.9464219,1.64126409 48.6082421,2.46189614 C50.2700624,3.28252818 49.8546073,3.28252818 51.1009725,3.6928442 C52.3473377,4.10316023 57.7482535,5.33410829 62.7337142,5.74442432 C64.3955344,6.56505636 66.4728098,7.79600443 66.4728098,8.20632045 C66.4728098,8.47986447 66.4728098,10.3946726 66.4728098,13.9507448 C66.7497798,14.4978328 66.8882648,14.7713768 66.8882648,14.7713768 C66.8882648,14.7713768 68.5500851,14.3610608 71.8737255,13.5404287 L73.5355458,13.1301127 L75.197366,13.1301127 L75.197366,18.464221 L72.7046357,24.6189614 L67.7191749,27.4911735 L66.8882648,29.5427536 L66.8882648,33.2355978 C66.8882648,33.5091419 66.7497798,33.7826859 66.4728098,34.0562299 C66.0573547,34.4665459 63.9800794,38.1593901 58.1637085,39.3903382 C54.286128,40.2109702 47.500362,39.9374262 37.8064105,38.5697061 L24.5118486,36.10781 L22.4345733,33.2355978 L22.4345733,27.9014895 L24.0963935,27.0808575 L24.0963935,24.2086453 C18.2800227,20.6525731 14.2639571,18.737765 12.0481968,18.464221 C8.72455628,18.053905 5.40091579,17.233273 3.73909555,16.4126409 C2.63121539,15.8655529 1.3848502,15.1816928 9.9475983e-14,14.3610608 Z" id="Depth" stroke="#2EC7FF" fill="#2EC7FF"></path>
                            <path d="M24.5118486,30.7737017 C23.1269984,28.8588936 22.4345733,27.9014895 22.4345733,27.9014895 C22.4345733,27.9014895 25.3427587,26.6705415 25.3427587,25.4395934 C25.3427587,24.2086453 25.1350312,23.3880133 24.5118486,22.9776973 C24.0963935,22.7041533 24.0963935,21.4732052 24.5118486,19.2848531 C19.2494178,15.7287809 15.0948672,13.6772008 12.0481968,13.1301127 C7.4781911,12.3094807 4.98546073,11.8991647 3.73909555,11.0785326 C2.49273037,10.2579006 5.6872698e-14,9.43726852 5.68434189e-14,9.0269525 C5.68434189e-14,8.75340848 5.68434189e-14,8.34309246 5.68434189e-14,7.79600443 C1.93879028,7.2489164 3.18515547,6.97537239 3.73909555,6.97537239 C4.57000567,6.97537239 8.30910122,3.28252818 9.97092146,3.28252818 C11.0788016,3.28252818 13.571532,2.32512413 17.4491126,0.410316023 C20.495783,-0.136772008 22.5730583,-0.136772008 23.6809385,0.410316023 C25.3427587,1.23094807 32.4054948,2.46189614 36.5600454,2.46189614 C40.714596,2.46189614 48.1927871,1.64126409 50.2700624,3.28252818 C51.6549126,4.37670424 55.8094632,5.19733629 62.7337142,5.74442432 C65.7803847,7.11214439 67.0267498,8.20632045 66.4728098,9.0269525 C65.9188697,9.84758454 64.3955344,10.5314446 61.9028041,11.0785326 C61.348864,12.7197967 61.348864,13.6772008 61.9028041,13.9507448 C62.4567442,14.2242888 64.3955344,14.4978328 67.7191749,14.7713768 L73.5355458,13.1301127 L75.197366,13.1301127 L72.7046357,19.2848531 L67.7191749,22.1570652 L66.4728098,25.4395934 C67.3037199,27.0808575 67.3037199,28.1750336 66.4728098,28.7221216 C65.2264446,29.5427536 62.9414417,35.2871779 50.2700624,34.4665459 C41.8224761,33.9194579 33.2364049,32.6885098 24.5118486,30.7737017 Z" id="Outline" stroke="#2EC7FF" fill="#61D4FF"></path>
                        </g>
                        <g id="Japan" transform="translate(355.001519, 213.292972)">
                            <path d="M0,11.8700576 L0,6.34910056 C7.68401556,6.90119626 12.4534045,7.03922019 14.3081669,6.76317234 C16.1629293,6.48712449 18.2826577,5.06087726 20.6673522,2.48443065 C20.6673522,0.828143551 21.0648013,5.28604655e-17 21.8596994,0 C22.6545976,0 24.1119109,0.552095701 26.2316393,1.6562871 L26.2316393,7.03922019 L17.8852086,14.4925122 C15.5005141,15.4126717 13.7782348,15.7807355 12.7183706,15.5967036 C11.6585064,15.4126717 7.4190495,14.1704563 0,11.8700576 Z" id="Depth" stroke="#2EC7FF" fill="#2EC7FF"></path>
                            <path d="M1.42108547e-14,6.34910056 C9.27381188,6.80918031 14.4406499,6.76317234 15.5005141,6.21107664 C17.0903105,5.38293308 20.2699031,3.31257421 20.6673522,2.48443065 C21.0648013,1.6562871 21.0648013,-3.86895479e-16 22.2571485,0 C23.0520467,2.50287655e-16 24.3768769,0.552095701 26.2316393,1.6562871 L25.4367412,2.48443065 L17.8852086,9.10957907 C13.6457518,10.2137705 9.93622701,10.3517944 6.75663437,9.52365084 C3.57704172,8.69550729 1.32483027,7.63732386 1.42108547e-14,6.34910056 Z" id="Outline" stroke="#2EC7FF" fill="#61D4FF"></path>
                        </g>
                        <g id="New-Zealand" transform="translate(265.813945, 302.456428)">
                            <path d="M1.42108547e-14,3.97341603 L1.42108547e-14,0 L1.62676833,0 L6.9137654,0.397341603 L15.4542991,0.794683206 L22.7747566,2.78139122 C27.9261897,2.78139122 31.0441623,2.51649682 32.1286745,1.98670801 C33.2131867,1.45691921 34.0265709,1.05957761 34.568827,0.794683206 L34.9755191,1.98670801 L34.9755191,6.35746565 L31.3152903,8.34417366 L21.1479883,8.74151527 L14.2342229,6.75480725 C10.9806862,5.69522964 8.81166179,5.29788804 7.72714957,5.56278244 C6.10038124,5.96012404 2.03346041,5.96012404 1.62676833,5.56278244 C1.35564027,5.29788804 0.813384165,4.76809924 1.42108547e-14,3.97341603 Z" id="Depth" stroke="#2EC7FF" fill="#2EC7FF"></path>
                            <path d="M1.62676833,8.8817842e-16 L15.4542991,0.894018607 L22.7747566,2.68205582 C26.5705494,2.68205582 29.1462659,2.58272042 30.5019062,2.38404962 C31.8575465,2.18537882 33.2131867,1.68870181 34.568827,0.894018607 L34.9755191,1.78803721 C33.3487508,2.58272042 32.1286745,3.07939742 31.3152903,3.27806822 C30.5019062,3.47673903 26.9772415,3.57607443 20.7412962,3.57607443 C16.6743754,2.58272042 14.5053509,2.08604342 14.2342229,2.08604342 C13.8275308,2.08604342 10.5739941,0.894018607 6.9137654,1.19202481 C4.47361291,1.39069561 2.57571652,1.29136021 1.22007625,0.894018607 L0.406692082,8.8817842e-16 L1.62676833,8.8817842e-16 Z" id="Outline" stroke="#2EC7FF" fill="#61D4FF"></path>
                        </g>
                    </g>
                </g>
            </g>
            <g id="bling" transform="translate(186.000000, 84.000000)" stroke="#75A4FE" stroke-linecap="round" stroke-linejoin="round" stroke-width="2.5">
                <path d="M10,0 L10,6" id="Line"></path>
                <path d="M10,14 L10,20" id="Line"></path>
                <path d="M3,7 L3,13" id="Line" transform="translate(3.000000, 10.000000) rotate(-90.000000) translate(-3.000000, -10.000000) "></path>
                <path d="M17,7 L17,13" id="Line" transform="translate(17.000000, 10.000000) rotate(-90.000000) translate(-17.000000, -10.000000) "></path>
            </g>
            <g id="bling" transform="translate(146.000000, 151.000000)" stroke="#75A4FE" stroke-linecap="round" stroke-linejoin="round" stroke-width="2.5">
                <path d="M8.5,0 L8.5,4" id="Line"></path>
                <path d="M8.5,12 L8.5,16" id="Line"></path>
                <path d="M2.5,6 L2.5,10" id="Line" transform="translate(2.500000, 8.000000) rotate(-90.000000) translate(-2.500000, -8.000000) "></path>
                <path d="M14.5,6 L14.5,10" id="Line" transform="translate(14.500000, 8.000000) rotate(-90.000000) translate(-14.500000, -8.000000) "></path>
            </g>
        </g>
    </g>
</svg>